# xmcd
#
# Track frame offsets:
#        150
#        16604
#        30949
#        50022
#        66322
#        91150
#
# Disc length: 1638 seconds
#
# Revision: 0
# Processed by: cddbd v1.5.1PL0 Copyright (c) Steve Scherf et al.
# Submitted via: ExactAudioCopy v0.90b4
#
DISCID=3d066406
DTITLE=Busted - 3AM-Thunderbirds
DYEAR=2004
DGENRE=Pop
TTITLE0=3am - Radio Edit
TTITLE1=Thunderbirds
TTITLE2=Runaway Train
TTITLE3=3am - Acoustic Version
TTITLE4=Thunderbirds - Acoustic Version
TTITLE5=Busted In Japan Pt.1
EXTD=
EXTT0=
EXTT1=
EXTT2=
EXTT3=
EXTT4=
EXTT5=
PLAYORDER=
